<?xml version="1.0" encoding="iso-8859-1"?>
<!-- Generator: Adobe Illustrator 19.0.0, SVG Export Plug-In . SVG Version: 6.00 Build 0)  -->
<svg version="1.1" id="Layer_1" xmlns="http://www.w3.org/2000/svg" xmlns:xlink="http://www.w3.org/1999/xlink" x="0px" y="0px"
	 viewBox="0 0 512.002 512.002" style="enable-background:new 0 0 512.002 512.002;" xml:space="preserve">
<circle style="fill:#273B7A;" cx="256.001" cy="256" r="256"/>
<path style="fill:#121149;" d="M170.778,387.355l-54.72,5.354L234.438,511.09c7.111,0.593,14.3,0.912,21.563,0.912
	c125.805,0,230.412-90.75,251.938-210.356L318.277,111.876l-131.124,79.872l3.724,3.724l-54.974,39.267l1.083,46.545
	L170.778,387.355z"/>
<polygon style="fill:#38C6D9;" points="171.585,395.354 118.19,235.168 251.61,128.433 264.203,144.174 141.758,242.128 
	190.71,388.98 "/>
<polygon style="fill:#FFC61B;" points="455.112,398.222 256.001,398.222 256.001,227.556 350.29,198.408 "/>
<polygon style="fill:#FFC61B;" points="350.29,198.408 307.035,211.78 365.593,398.222 455.112,398.222 "/>
<circle style="fill:#D0D1D3;" cx="287.324" cy="142.446" r="43.494"/>
<path style="fill:#D0D1D3;" d="M299.367,184.227c23.078-6.649,36.399-30.748,29.749-53.827
	c-6.649-23.08-30.748-36.399-53.827-29.749c-0.972,0.281-1.922,0.603-2.86,0.943l26.028,82.87
	C298.761,184.384,299.064,184.315,299.367,184.227z"/>
<polygon style="fill:#FFFFFF;" points="374.088,207.956 248.724,244.072 245.54,154.477 329.117,130.4 "/>
<polygon style="fill:#FFFFFF;" points="374.088,207.956 329.117,130.4 285.43,142.986 311.499,225.989 "/>
<g>
	<circle style="fill:#386895;" cx="133.845" cy="238.64" r="20.935"/>
	<path style="fill:#386895;" d="M228.917,398.222H126.572c-7.066,0-12.793-5.729-12.793-12.793l0,0
		c0-7.066,5.729-12.793,12.793-12.793h102.345c7.066,0,12.793,5.729,12.793,12.793l0,0
		C241.711,392.494,235.983,398.222,228.917,398.222z"/>
</g>
</svg>
